<svg id="visual" viewBox="0 0 900 200" width="900" height="200" xmlns="http://www.w3.org/2000/svg" xmlns:xlink="http://www.w3.org/1999/xlink" version="1.1"><rect x="0" y="0" width="900" height="200" fill="#030321"></rect><path d="M0 66L90 95L180 33L270 67L360 78L450 71L540 81L630 50L720 69L810 60L900 59L900 201L810 201L720 201L630 201L540 201L450 201L360 201L270 201L180 201L90 201L0 201Z" fill="#3d5a80"></path><path d="M0 101L90 118L180 84L270 95L360 110L450 82L540 62L630 113L720 90L810 71L900 114L900 201L810 201L720 201L630 201L540 201L450 201L360 201L270 201L180 201L90 201L0 201Z" fill="#394f70"></path><path d="M0 138L90 127L180 109L270 109L360 103L450 99L540 141L630 102L720 131L810 133L900 108L900 201L810 201L720 201L630 201L540 201L450 201L360 201L270 201L180 201L90 201L0 201Z" fill="#344560"></path><path d="M0 135L90 153L180 132L270 135L360 147L450 123L540 132L630 161L720 153L810 127L900 160L900 201L810 201L720 201L630 201L540 201L450 201L360 201L270 201L180 201L90 201L0 201Z" fill="#2f3b50"></path><path d="M0 168L90 162L180 156L270 160L360 167L450 166L540 164L630 151L720 154L810 176L900 166L900 201L810 201L720 201L630 201L540 201L450 201L360 201L270 201L180 201L90 201L0 201Z" fill="#293241"></path></svg>