<svg id="visual" viewBox="0 0 900 600" width="900" height="600" xmlns="http://www.w3.org/2000/svg" xmlns:xlink="http://www.w3.org/1999/xlink" version="1.1"><rect x="0" y="0" width="900" height="600" fill="#030321"></rect><path d="M0 350L21.5 350.2C43 350.3 86 350.7 128.8 353.8C171.7 357 214.3 363 257.2 375.7C300 388.3 343 407.7 385.8 412.8C428.7 418 471.3 409 514.2 402.5C557 396 600 392 642.8 400C685.7 408 728.3 428 771.2 431.5C814 435 857 422 878.5 415.5L900 409L900 601L878.5 601C857 601 814 601 771.2 601C728.3 601 685.7 601 642.8 601C600 601 557 601 514.2 601C471.3 601 428.7 601 385.8 601C343 601 300 601 257.2 601C214.3 601 171.7 601 128.8 601C86 601 43 601 21.5 601L0 601Z" fill="#293241"></path><path d="M0 428L21.5 434.7C43 441.3 86 454.7 128.8 460.7C171.7 466.7 214.3 465.3 257.2 462.7C300 460 343 456 385.8 444.2C428.7 432.3 471.3 412.7 514.2 414.7C557 416.7 600 440.3 642.8 446.2C685.7 452 728.3 440 771.2 441.3C814 442.7 857 457.3 878.5 464.7L900 472L900 601L878.5 601C857 601 814 601 771.2 601C728.3 601 685.7 601 642.8 601C600 601 557 601 514.2 601C471.3 601 428.7 601 385.8 601C343 601 300 601 257.2 601C214.3 601 171.7 601 128.8 601C86 601 43 601 21.5 601L0 601Z" fill="#1f2739"></path><path d="M0 447L21.5 457.3C43 467.7 86 488.3 128.8 496.3C171.7 504.3 214.3 499.7 257.2 492.8C300 486 343 477 385.8 478.7C428.7 480.3 471.3 492.7 514.2 494.3C557 496 600 487 642.8 480.7C685.7 474.3 728.3 470.7 771.2 465.5C814 460.3 857 453.7 878.5 450.3L900 447L900 601L878.5 601C857 601 814 601 771.2 601C728.3 601 685.7 601 642.8 601C600 601 557 601 514.2 601C471.3 601 428.7 601 385.8 601C343 601 300 601 257.2 601C214.3 601 171.7 601 128.8 601C86 601 43 601 21.5 601L0 601Z" fill="#151d31"></path><path d="M0 537L21.5 533.3C43 529.7 86 522.3 128.8 513.2C171.7 504 214.3 493 257.2 489.5C300 486 343 490 385.8 496.7C428.7 503.3 471.3 512.7 514.2 514.3C557 516 600 510 642.8 503.3C685.7 496.7 728.3 489.3 771.2 490C814 490.7 857 499.3 878.5 503.7L900 508L900 601L878.5 601C857 601 814 601 771.2 601C728.3 601 685.7 601 642.8 601C600 601 557 601 514.2 601C471.3 601 428.7 601 385.8 601C343 601 300 601 257.2 601C214.3 601 171.7 601 128.8 601C86 601 43 601 21.5 601L0 601Z" fill="#0d1329"></path><path d="M0 547L21.5 547.3C43 547.7 86 548.3 128.8 547.8C171.7 547.3 214.3 545.7 257.2 547C300 548.3 343 552.7 385.8 556.3C428.7 560 471.3 563 514.2 561.2C557 559.3 600 552.7 642.8 547.8C685.7 543 728.3 540 771.2 536.7C814 533.3 857 529.7 878.5 527.8L900 526L900 601L878.5 601C857 601 814 601 771.2 601C728.3 601 685.7 601 642.8 601C600 601 557 601 514.2 601C471.3 601 428.7 601 385.8 601C343 601 300 601 257.2 601C214.3 601 171.7 601 128.8 601C86 601 43 601 21.5 601L0 601Z" fill="#030321"></path></svg>