<svg id="visual" viewBox="0 0 900 200" width="900" height="200" xmlns="http://www.w3.org/2000/svg" xmlns:xlink="http://www.w3.org/1999/xlink" version="1.1"><rect x="0" y="0" width="900" height="200" fill="#030321"></rect><path d="M0 90L9.3 87.8C18.7 85.7 37.3 81.3 56.2 81C75 80.7 94 84.3 112.8 84.8C131.7 85.3 150.3 82.7 169 76.2C187.7 69.7 206.3 59.3 225 61.2C243.7 63 262.3 77 281.2 77C300 77 319 63 337.8 51.8C356.7 40.7 375.3 32.3 394 35.5C412.7 38.7 431.3 53.3 450 64.5C468.7 75.7 487.3 83.3 506.2 81C525 78.7 544 66.3 562.8 59.3C581.7 52.3 600.3 50.7 619 49.8C637.7 49 656.3 49 675 51C693.7 53 712.3 57 731.2 56.7C750 56.3 769 51.7 787.8 56.3C806.7 61 825.3 75 844 81.5C862.7 88 881.3 87 890.7 86.5L900 86L900 201L890.7 201C881.3 201 862.7 201 844 201C825.3 201 806.7 201 787.8 201C769 201 750 201 731.2 201C712.3 201 693.7 201 675 201C656.3 201 637.7 201 619 201C600.3 201 581.7 201 562.8 201C544 201 525 201 506.2 201C487.3 201 468.7 201 450 201C431.3 201 412.7 201 394 201C375.3 201 356.7 201 337.8 201C319 201 300 201 281.2 201C262.3 201 243.7 201 225 201C206.3 201 187.7 201 169 201C150.3 201 131.7 201 112.8 201C94 201 75 201 56.2 201C37.3 201 18.7 201 9.3 201L0 201Z" fill="#293241"></path><path d="M0 79L9.3 82.5C18.7 86 37.3 93 56.2 98.2C75 103.3 94 106.7 112.8 101.7C131.7 96.7 150.3 83.3 169 80.2C187.7 77 206.3 84 225 87.7C243.7 91.3 262.3 91.7 281.2 88C300 84.3 319 76.7 337.8 80C356.7 83.3 375.3 97.7 394 96C412.7 94.3 431.3 76.7 450 72.7C468.7 68.7 487.3 78.3 506.2 83.7C525 89 544 90 562.8 93.7C581.7 97.3 600.3 103.7 619 104.7C637.7 105.7 656.3 101.3 675 92.7C693.7 84 712.3 71 731.2 73.2C750 75.3 769 92.7 787.8 98.2C806.7 103.7 825.3 97.3 844 90C862.7 82.7 881.3 74.3 890.7 70.2L900 66L900 201L890.7 201C881.3 201 862.7 201 844 201C825.3 201 806.7 201 787.8 201C769 201 750 201 731.2 201C712.3 201 693.7 201 675 201C656.3 201 637.7 201 619 201C600.3 201 581.7 201 562.8 201C544 201 525 201 506.2 201C487.3 201 468.7 201 450 201C431.3 201 412.7 201 394 201C375.3 201 356.7 201 337.8 201C319 201 300 201 281.2 201C262.3 201 243.7 201 225 201C206.3 201 187.7 201 169 201C150.3 201 131.7 201 112.8 201C94 201 75 201 56.2 201C37.3 201 18.7 201 9.3 201L0 201Z" fill="#2f3b50"></path><path d="M0 121L9.3 121.8C18.7 122.7 37.3 124.3 56.2 120.7C75 117 94 108 112.8 107.8C131.7 107.7 150.3 116.3 169 122.5C187.7 128.7 206.3 132.3 225 128.5C243.7 124.7 262.3 113.3 281.2 109.8C300 106.3 319 110.7 337.8 111.8C356.7 113 375.3 111 394 107.7C412.7 104.3 431.3 99.7 450 104.3C468.7 109 487.3 123 506.2 128.7C525 134.3 544 131.7 562.8 123.5C581.7 115.3 600.3 101.7 619 101.5C637.7 101.3 656.3 114.7 675 117C693.7 119.3 712.3 110.7 731.2 104.7C750 98.7 769 95.3 787.8 94.2C806.7 93 825.3 94 844 92.8C862.7 91.7 881.3 88.3 890.7 86.7L900 85L900 201L890.7 201C881.3 201 862.7 201 844 201C825.3 201 806.7 201 787.8 201C769 201 750 201 731.2 201C712.3 201 693.7 201 675 201C656.3 201 637.7 201 619 201C600.3 201 581.7 201 562.8 201C544 201 525 201 506.2 201C487.3 201 468.7 201 450 201C431.3 201 412.7 201 394 201C375.3 201 356.7 201 337.8 201C319 201 300 201 281.2 201C262.3 201 243.7 201 225 201C206.3 201 187.7 201 169 201C150.3 201 131.7 201 112.8 201C94 201 75 201 56.2 201C37.3 201 18.7 201 9.3 201L0 201Z" fill="#344560"></path><path d="M0 140L9.3 139.8C18.7 139.7 37.3 139.3 56.2 140.8C75 142.3 94 145.7 112.8 145.2C131.7 144.7 150.3 140.3 169 136.3C187.7 132.3 206.3 128.7 225 132.2C243.7 135.7 262.3 146.3 281.2 151.2C300 156 319 155 337.8 154.8C356.7 154.7 375.3 155.3 394 153C412.7 150.7 431.3 145.3 450 145.3C468.7 145.3 487.3 150.7 506.2 150.8C525 151 544 146 562.8 144C581.7 142 600.3 143 619 143.5C637.7 144 656.3 144 675 145.5C693.7 147 712.3 150 731.2 150.8C750 151.7 769 150.3 787.8 146C806.7 141.7 825.3 134.3 844 129.3C862.7 124.3 881.3 121.7 890.7 120.3L900 119L900 201L890.7 201C881.3 201 862.7 201 844 201C825.3 201 806.7 201 787.8 201C769 201 750 201 731.2 201C712.3 201 693.7 201 675 201C656.3 201 637.7 201 619 201C600.3 201 581.7 201 562.8 201C544 201 525 201 506.2 201C487.3 201 468.7 201 450 201C431.3 201 412.7 201 394 201C375.3 201 356.7 201 337.8 201C319 201 300 201 281.2 201C262.3 201 243.7 201 225 201C206.3 201 187.7 201 169 201C150.3 201 131.7 201 112.8 201C94 201 75 201 56.2 201C37.3 201 18.7 201 9.3 201L0 201Z" fill="#394f70"></path><path d="M0 166L9.3 163.7C18.7 161.3 37.3 156.7 56.2 155.2C75 153.7 94 155.3 112.8 157.8C131.7 160.3 150.3 163.7 169 163.3C187.7 163 206.3 159 225 155.7C243.7 152.3 262.3 149.7 281.2 154C300 158.3 319 169.7 337.8 173.3C356.7 177 375.3 173 394 169.2C412.7 165.3 431.3 161.7 450 160C468.7 158.3 487.3 158.7 506.2 157C525 155.3 544 151.7 562.8 151.7C581.7 151.7 600.3 155.3 619 158.2C637.7 161 656.3 163 675 164C693.7 165 712.3 165 731.2 164.7C750 164.3 769 163.7 787.8 163.3C806.7 163 825.3 163 844 162.3C862.7 161.7 881.3 160.3 890.7 159.7L900 159L900 201L890.7 201C881.3 201 862.7 201 844 201C825.3 201 806.7 201 787.8 201C769 201 750 201 731.2 201C712.3 201 693.7 201 675 201C656.3 201 637.7 201 619 201C600.3 201 581.7 201 562.8 201C544 201 525 201 506.2 201C487.3 201 468.7 201 450 201C431.3 201 412.7 201 394 201C375.3 201 356.7 201 337.8 201C319 201 300 201 281.2 201C262.3 201 243.7 201 225 201C206.3 201 187.7 201 169 201C150.3 201 131.7 201 112.8 201C94 201 75 201 56.2 201C37.3 201 18.7 201 9.3 201L0 201Z" fill="#3d5a80"></path></svg>